<svg width="31" height="32" viewBox="0 0 31 32" fill="none" xmlns="http://www.w3.org/2000/svg">
<g clip-path="url(#clip0_4029_3)">
<path fill-rule="evenodd" clip-rule="evenodd" d="M15.353 2.61776C12.1759 2.61818 9.10258 3.74893 6.68282 5.80772C4.26306 7.86651 2.6547 10.719 2.14545 13.855C1.63619 16.9911 2.25926 20.2059 3.9032 22.9246C5.54715 25.6433 8.10471 27.6885 11.1184 28.6942C11.7875 28.8185 12.0743 28.4075 12.0743 28.0538C12.0743 27.7001 12.0743 26.8972 12.0743 25.7788C8.3559 26.5817 7.57208 23.9817 7.57208 23.9817C7.3106 23.1624 6.76027 22.466 6.02355 22.0222C4.80958 21.2001 6.11914 21.2097 6.11914 21.2097C6.54317 21.2696 6.94791 21.4256 7.30244 21.6658C7.65696 21.906 7.9519 22.2241 8.16473 22.5957C8.53498 23.2598 9.15381 23.7496 9.88516 23.9576C10.6165 24.1655 11.4005 24.0745 12.0647 23.7045C12.1187 23.0263 12.4177 22.3909 12.9059 21.917C9.94267 21.5729 6.81693 20.4258 6.81693 15.3023C6.79526 13.9716 7.2884 12.684 8.1934 11.7082C7.78377 10.5556 7.83167 9.28979 8.32723 8.17143C8.32723 8.17143 9.44561 7.8082 12.0074 9.53834C14.1978 8.94087 16.5082 8.94087 18.6985 9.53834C21.2508 7.8082 22.3691 8.17143 22.3691 8.17143C22.8647 9.28979 22.9126 10.5556 22.503 11.7082C23.408 12.684 23.9011 13.9716 23.8794 15.3023C23.8794 20.445 20.7537 21.5729 17.7713 21.9075C18.0908 22.2313 18.3372 22.6198 18.4938 23.0469C18.6505 23.4739 18.7138 23.9296 18.6794 24.3832C18.6794 26.1707 18.6794 27.6141 18.6794 28.0538C18.6794 28.4935 18.9184 28.8281 19.6353 28.6942C22.653 27.6872 25.2132 25.6381 26.8569 22.9144C28.5005 20.1907 29.1202 16.9706 28.6047 13.8314C28.0891 10.6922 26.4722 7.83934 24.0437 5.78437C21.6153 3.72941 18.5342 2.60677 15.353 2.61776Z" fill="black"/>
</g>
<defs>
<clipPath id="clip0_4029_3">
<rect width="30.5882" height="30.5882" fill="white" transform="translate(0.0588379 0.706055)"/>
</clipPath>
</defs>
</svg>
