<svg width="32" height="32" viewBox="0 0 32 32" fill="none" xmlns="http://www.w3.org/2000/svg">
<g clip-path="url(#clip0_4029_2)">
<path d="M22.123 11.2534C22.8832 11.2534 23.4995 10.6372 23.4995 9.87696C23.4995 9.11676 22.8832 8.50049 22.123 8.50049C21.3628 8.50049 20.7465 9.11676 20.7465 9.87696C20.7465 10.6372 21.3628 11.2534 22.123 11.2534Z" fill="black"/>
<path d="M16 10.1099C14.835 10.1099 13.6962 10.4553 12.7275 11.1026C11.7588 11.7498 11.0039 12.6697 10.558 13.7461C10.1122 14.8224 9.99555 16.0067 10.2228 17.1493C10.4501 18.292 11.0111 19.3415 11.8349 20.1653C12.6587 20.9891 13.7082 21.5501 14.8508 21.7774C15.9935 22.0046 17.1778 21.888 18.2541 21.4422C19.3304 20.9963 20.2504 20.2414 20.8976 19.2727C21.5449 18.304 21.8903 17.1652 21.8903 16.0002C21.8903 14.438 21.2697 12.9398 20.1651 11.8351C19.0604 10.7305 17.5622 10.1099 16 10.1099ZM16 19.8237C15.2438 19.8237 14.5045 19.5995 13.8758 19.1793C13.247 18.7592 12.7569 18.1621 12.4675 17.4634C12.1781 16.7647 12.1024 15.996 12.2499 15.2543C12.3975 14.5126 12.7616 13.8313 13.2963 13.2966C13.8311 12.7618 14.5124 12.3977 15.2541 12.2501C15.9957 12.1026 16.7645 12.1783 17.4632 12.4677C18.1618 12.7571 18.759 13.2472 19.1791 13.876C19.5993 14.5047 19.8235 15.244 19.8235 16.0002C19.8235 17.0143 19.4207 17.9868 18.7036 18.7038C17.9866 19.4209 17.0141 19.8237 16 19.8237Z" fill="black"/>
<path d="M16 6.59659C19.0627 6.59659 19.4256 6.60826 20.6351 6.66351C21.3624 6.67216 22.0829 6.80577 22.765 7.05848C23.2597 7.24935 23.709 7.54165 24.0839 7.91657C24.4588 8.29149 24.7511 8.74073 24.942 9.2354C25.1947 9.91753 25.3283 10.638 25.3369 11.3654C25.3921 12.5749 25.4039 12.9377 25.4039 16.0005C25.4039 19.0632 25.3922 19.4261 25.3369 20.6355C25.3283 21.3629 25.1947 22.0834 24.942 22.7655C24.7511 23.2602 24.4588 23.7094 24.0839 24.0844C23.709 24.4593 23.2597 24.7516 22.765 24.9425C22.0829 25.1952 21.3624 25.3288 20.6351 25.3374C19.4257 25.3926 19.063 25.4043 16 25.4043C12.9369 25.4043 12.5743 25.3927 11.3649 25.3374C10.6375 25.3288 9.91704 25.1952 9.23491 24.9425C8.74024 24.7516 8.291 24.4593 7.91608 24.0844C7.54116 23.7094 7.24886 23.2602 7.05798 22.7655C6.80527 22.0834 6.67167 21.3629 6.66301 20.6355C6.60786 19.4261 6.5961 19.0632 6.5961 16.0005C6.5961 12.9377 6.60776 12.5749 6.66301 11.3654C6.67167 10.638 6.80527 9.91753 7.05798 9.2354C7.24885 8.74072 7.54114 8.29146 7.91606 7.91652C8.29098 7.54158 8.74023 7.24927 9.23491 7.05838C9.91704 6.80567 10.6375 6.67207 11.3649 6.66341C12.5744 6.60826 12.9372 6.59659 16 6.59659ZM16 4.52979C12.8848 4.52979 12.4941 4.54298 11.2707 4.5988C10.3192 4.6179 9.37791 4.79819 8.48674 5.13199C7.72465 5.4267 7.03254 5.87739 6.45476 6.45516C5.87699 7.03293 5.42631 7.72504 5.13159 8.48714C4.79774 9.37845 4.61745 10.3199 4.5984 11.2715C4.54258 12.4945 4.52939 12.8852 4.52939 16.0004C4.52939 19.1156 4.54258 19.5063 4.5984 20.7297C4.61746 21.6813 4.79775 22.6228 5.13159 23.5141C5.42631 24.2762 5.87699 24.9683 6.45476 25.5461C7.03254 26.1238 7.72465 26.5745 8.48674 26.8692C9.37806 27.2031 10.3195 27.3834 11.2711 27.4024C12.4941 27.4578 12.8848 27.471 16 27.471C19.1152 27.471 19.5059 27.4578 20.7293 27.4019C21.6809 27.3829 22.6224 27.2026 23.5137 26.8688C24.2758 26.574 24.9679 26.1234 25.5457 25.5456C26.1234 24.9678 26.5741 24.2757 26.8688 23.5136C27.2027 22.6223 27.383 21.6808 27.402 20.7292C27.4574 19.5063 27.4706 19.1156 27.4706 16.0004C27.4706 12.8852 27.4574 12.4945 27.4016 11.271C27.3824 10.3196 27.2022 9.3783 26.8684 8.48714C26.5736 7.72513 26.1229 7.03311 25.5451 6.45543C24.9673 5.87774 24.2753 5.42713 23.5132 5.13247C22.6219 4.79862 21.6804 4.61834 20.7288 4.59928C19.5059 4.54298 19.1152 4.52979 16 4.52979Z" fill="black"/>
</g>
<defs>
<clipPath id="clip0_4029_2">
<rect width="30.5882" height="30.5882" fill="white" transform="translate(0.705872 0.706055)"/>
</clipPath>
</defs>
</svg>
