<svg width="31" height="32" viewBox="0 0 31 32" fill="none" xmlns="http://www.w3.org/2000/svg">
<g clip-path="url(#clip0_4029_4)">
<path d="M25.4558 4.52979H5.95585C4.99997 4.52979 4.23526 5.29449 4.23526 6.15478V25.7504C4.23526 26.6107 4.99997 27.3754 5.95585 27.3754H25.4558C26.4117 27.3754 27.1764 26.6107 27.1764 25.7504V6.15478C27.1764 5.29449 26.4117 4.52979 25.4558 4.52979ZM11.022 24.0298H7.67644V13.1327H11.022V24.0298ZM9.39702 11.6033C8.34555 11.6033 7.38967 10.743 7.38967 9.59596C7.38967 8.4489 8.24997 7.58861 9.39702 7.58861C10.4485 7.58861 11.4044 8.4489 11.4044 9.59596C11.4044 10.743 10.4485 11.6033 9.39702 11.6033ZM23.8308 23.9342H20.4853V18.5813C20.4853 17.3386 20.4853 15.618 18.6691 15.618C16.8529 15.618 16.6617 17.0518 16.6617 18.3901V23.8386H13.3161V13.1327H16.4706V14.5665H16.5661C17.0441 13.7063 18.1911 12.7504 19.8161 12.7504C23.2573 12.7504 23.9264 15.0445 23.9264 18.0077V23.9342H23.8308Z" fill="black"/>
</g>
<defs>
<clipPath id="clip0_4029_4">
<rect width="30.5882" height="30.5882" fill="white" transform="translate(0.411743 0.706055)"/>
</clipPath>
</defs>
</svg>
