<svg width="18" height="18" viewBox="0 0 18 18" fill="none" xmlns="http://www.w3.org/2000/svg">
<g clip-path="url(#clip0_9_24)">
<path d="M8.59091 9C7.44546 9 6.54546 8.1 6.54546 6.95454C6.54546 5.80909 7.44546 4.90909 8.59091 4.90909C9.73636 4.90909 10.6364 5.80909 10.6364 6.95454C10.6364 8.1 9.73636 9 8.59091 9Z" fill="#797878"/>
<path d="M8.64204 16.5682L3.91704 10.9994C3.91704 10.9432 3.74829 10.7182 3.74829 10.7182C2.90454 9.64943 2.45454 8.35568 2.45454 7.00568C2.45454 3.57443 5.21079 0.818176 8.64204 0.818176C12.0733 0.818176 14.8295 3.57443 14.8295 7.00568C14.8295 8.35568 14.3795 9.64943 13.592 10.7182L13.4233 10.9432L8.64204 16.5682ZM4.59204 10.0432C4.59204 10.0432 4.70454 10.2119 4.76079 10.2682L8.64204 14.8244L12.5233 10.2682C12.5233 10.2119 12.692 10.0432 12.692 10.0432C13.367 9.14318 13.7045 8.13068 13.7045 7.00568C13.7045 4.19318 11.4545 1.94318 8.64204 1.94318C5.82954 1.94318 3.57954 4.19318 3.57954 7.00568C3.57954 8.13068 3.91704 9.14318 4.59204 10.0432Z" fill="#797878"/>
</g>
<defs>
<clipPath id="clip0_9_24">
<rect width="18" height="18" fill="white"/>
</clipPath>
</defs>
</svg>
