<svg width="146" height="61" viewBox="0 0 146 61" fill="none" xmlns="http://www.w3.org/2000/svg">
<rect x="136" y="32" width="10" height="10" rx="2" fill="url(#paint0_linear_4007_317)"/>
<path d="M9.68 10.552V41H3.212V10.552H9.68ZM29.9616 39.9C29.1109 40.4867 28.1429 40.9267 27.0576 41.22C26.0016 41.5427 24.9456 41.704 23.8896 41.704C21.4843 41.6747 19.6656 40.9853 18.4336 39.636C17.2016 38.2867 16.5856 36.3067 16.5856 33.696V22.08H13.1096V17.68H16.5856V12.576L22.8336 11.828V17.68H28.2016L27.5856 22.08H22.8336V33.564C22.8336 34.6787 23.0243 35.4853 23.4056 35.984C23.7869 36.4827 24.3736 36.732 25.1656 36.732C25.9576 36.732 26.8376 36.468 27.8056 35.94L29.9616 39.9ZM32.0399 22.652L31.2479 10.552H37.0559L36.2639 22.652H32.0399ZM49.7107 16.976C52.9961 16.976 55.8121 17.9147 58.1587 19.792L55.7827 23.356C53.8174 22.124 51.8814 21.508 49.9747 21.508C48.9481 21.508 48.1561 21.6987 47.5987 22.08C47.0414 22.4613 46.7627 22.9747 46.7627 23.62C46.7627 24.0893 46.8801 24.4853 47.1147 24.808C47.3787 25.1307 47.8481 25.4387 48.5227 25.732C49.2267 26.0253 50.2681 26.3773 51.6467 26.788C54.1107 27.4627 55.9441 28.372 57.1467 29.516C58.3494 30.6307 58.9507 32.1707 58.9507 34.136C58.9507 35.6907 58.4961 37.04 57.5867 38.184C56.7067 39.328 55.5041 40.208 53.9787 40.824C52.4534 41.4107 50.7521 41.704 48.8747 41.704C46.9094 41.704 45.1201 41.4107 43.5067 40.824C41.8934 40.208 40.5147 39.372 39.3707 38.316L42.4507 34.884C44.4161 36.4093 46.4987 37.172 48.6987 37.172C49.8721 37.172 50.7961 36.952 51.4707 36.512C52.1747 36.0427 52.5267 35.412 52.5267 34.62C52.5267 34.004 52.3947 33.52 52.1307 33.168C51.8667 32.816 51.3827 32.4933 50.6787 32.2C49.9747 31.8773 48.8747 31.5107 47.3787 31.1C45.0321 30.4547 43.2867 29.5453 42.1427 28.372C41.0281 27.1693 40.4707 25.688 40.4707 23.928C40.4707 22.608 40.8521 21.42 41.6147 20.364C42.3774 19.308 43.4481 18.4867 44.8267 17.9C46.2347 17.284 47.8627 16.976 49.7107 16.976ZM98.9756 16.976C100.824 16.976 102.305 17.6067 103.42 18.868C104.564 20.1293 105.136 21.8453 105.136 24.016V41H98.8876V25.072C98.8876 22.784 98.1249 21.64 96.5996 21.64C95.7783 21.64 95.0596 21.904 94.4436 22.432C93.8276 22.96 93.1969 23.7813 92.5516 24.896V41H86.3036V25.072C86.3036 22.784 85.5409 21.64 84.0156 21.64C83.1943 21.64 82.4756 21.9187 81.8596 22.476C81.2436 23.004 80.6276 23.8107 80.0116 24.896V41H73.7636V17.68H79.1756L79.6596 20.584C80.5396 19.4107 81.5223 18.516 82.6076 17.9C83.7223 17.284 84.9983 16.976 86.4356 16.976C87.7556 16.976 88.8996 17.3133 89.8676 17.988C90.8356 18.6333 91.5396 19.5573 91.9796 20.76C92.9476 19.4987 93.9889 18.56 95.1036 17.944C96.2476 17.2987 97.5383 16.976 98.9756 16.976ZM130.772 28.812C130.772 29.1053 130.728 29.912 130.64 31.232H116.076C116.282 33.344 116.854 34.84 117.792 35.72C118.731 36.6 120.007 37.04 121.62 37.04C122.618 37.04 123.556 36.8787 124.436 36.556C125.316 36.2333 126.27 35.72 127.296 35.016L129.892 38.536C127.282 40.648 124.334 41.704 121.048 41.704C117.382 41.704 114.566 40.604 112.6 38.404C110.635 36.204 109.652 33.2267 109.652 29.472C109.652 27.096 110.063 24.9693 110.884 23.092C111.735 21.1853 112.952 19.6893 114.536 18.604C116.15 17.5187 118.056 16.976 120.256 16.976C123.571 16.976 126.152 18.0173 128 20.1C129.848 22.1827 130.772 25.0867 130.772 28.812ZM124.568 27.052C124.568 23.18 123.175 21.244 120.388 21.244C119.098 21.244 118.086 21.728 117.352 22.696C116.648 23.6347 116.223 25.1747 116.076 27.316H124.568V27.052Z" fill="#D0CFCF"/>
<rect y="58" width="75" height="3" rx="1.5" fill="url(#paint1_linear_4007_317)"/>
<defs>
<linearGradient id="paint0_linear_4007_317" x1="141" y1="32" x2="141" y2="42" gradientUnits="userSpaceOnUse">
<stop stop-color="#9B91EE"/>
<stop offset="1" stop-color="#6D62C4"/>
</linearGradient>
<linearGradient id="paint1_linear_4007_317" x1="37.5" y1="58" x2="37.5" y2="61" gradientUnits="userSpaceOnUse">
<stop stop-color="#9B91EE"/>
<stop offset="1" stop-color="#6D62C4"/>
</linearGradient>
</defs>
</svg>
